#!OML:ASF E:\acrobat2\Project_11_07_03\Capture day 1\Session 1\Acrobat.ASF
:FULLY-SPECIFIED
:DEGREES
588
root 8.85382 18.1227 18.6661 -173.788 -9.27557 -177.413
lowerback 4.36749 7.77855 5.76017
upperback 3.19231 10.3362 -5.44318
thorax 2.97894 5.33777 -8.93997
lowerneck 5.56361 21.2938 5.43402
upperneck 2.83179 28.7294 -9.43219
head 2.36369 14.4026 -3.25646
rclavicle 3.18055e-015 5.56597e-015
rhumerus -32.8961 9.26981 -85.678
rradius 82.7121
rwrist -16.4349
rhand -11.8303 -24.0182
rfingers 7.12502
rthumb 14.2206 -53.5114
lclavicle 3.18055e-015 5.56597e-015
lhumerus -39.2894 -44.8046 89.5413
lradius 82.7854
lwrist 17.6448
lhand -7.74719 -7.53397
lfingers 7.12502
lthumb 18.1521 21.639
rfemur -8.77696 -8.03335 25.1259
rtibia 44.9383
rfoot 26.2744 -15.2345
rtoes 11.7379
lfemur -34.9491 -10.1991 -14.1156
ltibia 33.4602
lfoot 19.1609 -4.48004
ltoes 21.0366
589
root 8.87469 18.1476 18.8567 -173.419 -9.50487 -177.677
lowerback 4.24087 7.8033 5.63332
upperback 3.09894 10.3615 -5.62594
thorax 2.96881 5.34746 -9.05258
lowerneck 5.53651 21.2471 5.46128
upperneck 2.81722 28.6708 -9.52036
head 2.3781 14.3732 -3.28533
rclavicle -7.31528e-014 3.10104e-014
rhumerus -32.8924 9.77536 -85.6682
rradius 81.8874
rwrist -15.863
rhand -11.3537 -23.9529
rfingers 7.12502
rthumb 14.6798 -53.4133
lclavicle -7.31528e-014 3.10104e-014
lhumerus -38.8908 -44.7595 89.4086
lradius 83.0259
lwrist 17.5417
lhand -7.99613 -7.66811
lfingers 7.12502
lthumb 17.9126 21.527
rfemur -8.81977 -7.68671 24.9844
rtibia 43.9407
rfoot 25.1535 -13.8906
rtoes 10.8553
lfemur -34.4043 -11.0065 -13.9705
ltibia 30.582
lfoot 18.8075 -3.89904
ltoes 20.4997
590
root 8.89847 18.168 19.0505 -173.044 -9.65134 -177.915
lowerback 4.172 7.85625 5.52051
upperback 2.99292 10.4268 -5.7884
thorax 2.92009 5.37586 -9.15912
lowerneck 5.33364 21.2095 5.30387
upperneck 2.99218 28.6128 -9.40952
head 2.42265 14.3326 -3.20659
rclavicle -1.33981e-013 2.94201e-014
rhumerus -32.6194 10.4904 -85.6199
rradius 80.473
rwrist -15.2377
rhand -10.5481 -23.9773
rfingers 7.12502
rthumb 15.4558 -53.3794
lclavicle -1.33981e-013 2.94201e-014
lhumerus -38.5032 -44.747 89.3175
lradius 83.2652
lwrist 17.4495
lhand -8.17081 -7.73208
lfingers 7.12502
lthumb 17.7445 21.4783
rfemur -8.91483 -7.36313 24.9143
rtibia 42.854
rfoot 23.7549 -11.8684
rtoes 6.81064
lfemur -33.7411 -11.4527 -13.868
ltibia 27.501
lfoot 18.7021 -3.07383
ltoes 19.9744
591
root 8.91777 18.1853 19.2418 -172.709 -9.74717 -178.103
lowerback 4.09548 7.87374 5.43348
upperback 2.90468 10.4475 -5.87833
thorax 2.87521 5.38246 -9.20188
lowerneck 5.33597 21.2222 5.19471
upperneck 3.06451 28.6269 -9.48654
head 2.44564 14.3354 -3.21188
rclavicle -1.59823e-013 6.83819e-014
rhumerus -32.4518 11.2699 -85.4926
rradius 79.2612
rwrist -14.7147
rhand -10.432 -23.3445
rfingers 7.12502
rthumb 15.5676 -52.7379
lclavicle -1.59823e-013 6.83819e-014
lhumerus -38.1404 -44.5023 89.3828
lradius 83.4286
lwrist 17.3262
lhand -8.16824 -7.90838
lfingers 7.12502
lthumb 17.747 21.3018
rfemur -9.07318 -7.01076 24.8748
rtibia 41.8532
rfoot 22.1851 -10.5764
rtoes 3.59557
lfemur -32.9297 -11.5801 -13.8725
ltibia 24.3284
lfoot 18.8743 -2.52806
ltoes 17.6586
592
root 8.93132 18.2041 19.4284 -172.436 -9.82209 -178.14
lowerback 3.93498 7.86422 5.48109
upperback 2.90449 10.4374 -5.8838
thorax 2.97218 5.38414 -9.20984
lowerneck 5.17584 21.253 5.03937
upperneck 3.16071 28.6681 -9.6262
head 2.50968 14.3463 -3.20612
rclavicle 1.37957e-013 -2.14687e-014
rhumerus -32.3858 12.0806 -85.2726
rradius 78.348
rwrist -14.1927
rhand -10.5926 -22.5212
rfingers 7.12502
rthumb 15.413 -51.9266
lclavicle 1.37957e-013 -2.14687e-014
lhumerus -37.565 -44.1012 89.3876
lradius 83.47
lwrist 17.199
lhand -8.20114 -8.21104
lfingers 7.12502
lthumb 17.7153 21.002
rfemur -9.28589 -6.81605 24.9615
rtibia 41.1303
rfoot 20.2796 -9.76279
rtoes 3.206
lfemur -32.087 -11.4142 -13.8761
ltibia 21.2283
lfoot 19.3561 -2.19894
ltoes 14.0632
593
root 8.94682 18.2203 19.6151 -172.106 -9.87757 -178.037
lowerback 3.64852 7.90223 5.64489
upperback 2.91101 10.4956 -5.87744
thorax 3.18037 5.4295 -9.24535
lowerneck 4.82377 21.2585 4.89395
upperneck 3.34471 28.6814 -9.69089
head 2.62116 14.3362 -3.15292
rclavicle 2.22639e-014 -1.11319e-014
rhumerus -32.4217 12.7475 -85.0654
rradius 77.5639
rwrist -13.6605
rhand -9.77071 -22.6579
rfingers 7.12502
rthumb 16.2044 -52.0007
lclavicle 2.22639e-014 -1.11319e-014
lhumerus -36.7804 -43.8345 89.2001
lradius 83.4765
lwrist 16.9492
lhand -8.26142 -8.36158
lfingers 7.12502
lthumb 17.6573 20.8567
rfemur -9.71368 -6.94619 25.2436
rtibia 40.7941
rfoot 18.2479 -8.52424
rtoes 2.50441
lfemur -31.4889 -10.8723 -13.8332
ltibia 18.4449
lfoot 20.0107 -1.35583
ltoes 14.3826
594
root 8.97024 18.2246 19.811 -171.578 -10.1314 -177.935
lowerback 3.30988 7.90946 5.81686
upperback 2.76225 10.5167 -5.9317
thorax 3.25943 5.45139 -9.3567
lowerneck 4.81204 21.2131 4.99159
upperneck 3.32673 28.6337 -9.88722
head 2.66351 14.3127 -3.22021
rclavicle 3.18055e-014 -5.88403e-014
rhumerus -32.6106 13.1638 -84.8891
rradius 76.886
rwrist -13.2651
rhand -8.29468 -23.4917
rfingers 7.12502
rthumb 17.6253 -52.7128
lclavicle 3.18055e-014 -5.88403e-014
lhumerus -36.3511 -43.8182 89.1307
lradius 83.593
lwrist 16.6801
lhand -8.5623 -8.40314
lfingers 7.12502
lthumb 17.3677 20.8409
rfemur -10.5796 -7.43576 25.643
rtibia 40.8203
rfoot 16.2123 -7.49095
rtoes 1.80637
lfemur -31.4195 -9.35491 -14.1913
ltibia 16.3237
lfoot 21.3818 -0.601268
ltoes 18.1062
595
root 8.99753 18.2187 20.0163 -171.006 -10.6258 -177.838
lowerback 3.09648 7.81428 6.03252
upperback 2.51805 10.4064 -5.99022
thorax 3.14826 5.39933 -9.53254
lowerneck 5.01193 21.1261 5.13744
upperneck 3.11841 28.5247 -10.1623
head 2.62144 14.2704 -3.35819
rclavicle 1.12512e-013 -1.27222e-014
rhumerus -32.9547 13.606 -84.7106
rradius 76.1922
rwrist -12.5534
rhand -6.73805 -23.3055
rfingers 7.12502
rthumb 19.1227 -52.3854
lclavicle 1.12512e-013 -1.27222e-014
lhumerus -36.3585 -43.7835 89.2319
lradius 83.8583
lwrist 16.1813
lhand -8.93392 -8.53216
lfingers 7.12502
lthumb 17.01 20.7431
rfemur -11.8235 -8.13245 26.0906
rtibia 41.2398
rfoot 14.2173 -7.3744
rtoes 1.17193
lfemur -31.5841 -6.05865 -15.4581
ltibia 14.8215
lfoot 23.9444 -1.38949
ltoes 19.9827
596
root 9.00353 18.2081 20.1889 -170.991 -10.0955 -177.687
lowerback 3.04095 8.02821 6.25555
upperback 2.50543 10.701 -6.02408
thorax 3.28064 5.56199 -9.66376
lowerneck 5.17691 21.0861 5.29195
upperneck 2.81788 28.4782 -10.4739
head 2.56605 14.2624 -3.50474
rclavicle -1.09332e-013 -3.02153e-014
rhumerus -33.2162 14.178 -84.4274
rradius 75.6954
rwrist -12.2259
rhand -4.35829 -24.1549
rfingers 7.12502
rthumb 21.4099 -52.992
lclavicle -1.09332e-013 -3.02153e-014
lhumerus -36.1822 -43.5555 89.1993
lradius 84.1294
lwrist 15.5999
lhand -8.98714 -8.68643
lfingers 7.12502
lthumb 16.9588 20.5932
rfemur -12.5703 -8.24465 26.2095
rtibia 41.9527
rfoot 12.7586 -6.89031
rtoes 1.59513
lfemur -31.0198 -1.66713 -17.0304
ltibia 14.0798
lfoot 25.5233 -2.43374
ltoes 21.4797
597
root 9.02074 18.1889 20.3794 -170.714 -10.0182 -177.801
lowerback 2.85144 8.04752 6.09796
upperback 2.49158 10.7168 -6.07732
thorax 3.35542 5.56801 -9.60483
lowerneck 5.25195 21.1429 5.46851
upperneck 2.63114 28.5681 -10.7327
head 2.57108 14.3175 -3.60961
rclavicle 7.67309e-014 -2.38542e-014
rhumerus -33.1707 15.0366 -84.0884
rradius 75.0477
rwrist -12.2496
rhand -3.3551 -25.1702
rfingers 7.12502
rthumb 22.3731 -53.8947
lclavicle 7.67309e-014 -2.38542e-014
lhumerus -35.7267 -43.1939 89.0906
lradius 84.2609
lwrist 15.3213
lhand -8.8562 -8.88168
lfingers 7.12502
lthumb 17.0849 20.3871
rfemur -13.9186 -8.67157 26.1835
rtibia 43.0257
rfoot 11.7725 -6.61025
rtoes 2.25488
lfemur -30.9552 3.34148 -19.1404
ltibia 13.8276
lfoot 27.9667 -3.73243
ltoes 26.2653
598
root 9.03858 18.1657 20.5883 -170.317 -10.5099 -177.961
lowerback 2.73579 7.87098 6.06466
upperback 2.40093 10.479 -6.15096
thorax 3.28024 5.44395 -9.67293
lowerneck 5.3267 21.2093 5.5477
upperneck 2.57942 28.6742 -11.1598
head 2.36059 14.3599 -3.36932
rclavicle 1.06151e-013 -7.39479e-014
rhumerus -33.0765 15.9498 -83.852
rradius 74.1223
rwrist -12.2251
rhand -3.3149 -25.3288
rfingers 7.12502
rthumb 22.4117 -54.0486
lclavicle 1.06151e-013 -7.39479e-014
lhumerus -35.4445 -42.8782 89.1012
lradius 84.3942
lwrist 15.1029
lhand -8.79071 -9.10395
lfingers 7.12502
lthumb 17.1479 20.1594
rfemur -15.7069 -9.42464 26.2036
rtibia 44.3393
rfoot 11.1768 -6.38417
rtoes 2.62574
lfemur -30.7503 7.92509 -21.2574
ltibia 13.9806
lfoot 30.2387 -7.82644
ltoes 27.4268
599
root 9.06079 18.1438 20.8158 -169.839 -11.4271 -178.212
lowerback 2.76741 7.51692 5.99254
upperback 2.26979 10.0065 -6.18942
thorax 3.01368 5.19103 -9.72261
lowerneck 5.31814 21.2565 5.51091
upperneck 2.5267 28.735 -11.2066
head 2.353 14.3915 -3.37536
rclavicle -4.13472e-014 7.95139e-015
rhumerus -33.1787 16.8796 -83.6599
rradius 73.2808
rwrist -12.0397
rhand -2.51879 -25.4
rfingers 7.12502
rthumb 23.1757 -54.0258
lclavicle -4.13472e-014 7.95139e-015
lhumerus -35.3555 -42.4739 89.2102
lradius 84.6773
lwrist 14.8833
lhand -8.93495 -9.35764
lfingers 7.12502
lthumb 17.0091 19.9177
rfemur -17.8656 -10.4279 26.2387
rtibia 45.9354
rfoot 11.0286 -5.95824
rtoes 1.55954
lfemur -30.6643 10.2967 -22.5094
ltibia 14.196
lfoot 30.6875 -12.0262
ltoes 27.6388
600
root 9.05932 18.1245 21.0094 -169.981 -11.3384 -178.299
lowerback 3.0072 7.46464 6.05774
upperback 2.33846 9.94083 -6.16129
thorax 2.94483 5.1574 -9.76257
lowerneck 5.33878 21.2794 5.46176
upperneck 2.53219 28.7661 -11.3154
head 2.36378 14.406 -3.39691
rclavicle -2.3059e-014 7.15625e-014
rhumerus -33.5115 17.4553 -83.4224
rradius 72.8328
rwrist -11.7909
rhand -0.988498 -26.1642
rfingers 7.12502
rthumb 24.6432 -54.5976
lclavicle -2.3059e-014 7.15625e-014
lhumerus -35.372 -42.0218 89.4783
lradius 85.0085
lwrist 14.8915
lhand -9.34142 -9.51681
lfingers 7.12502
lthumb 16.6178 19.7918
rfemur -19.3563 -10.6575 26.0039
rtibia 47.6088
rfoot 11.3741 -5.29437
rtoes 0.402875
lfemur -29.3699 10.5187 -22.2197
ltibia 14.5453
lfoot 27.4514 -15.3069
ltoes 24.0687
